<?xml version="1.0" encoding="UTF-8" standalone="no"?>
<svg
   width="681"
   height="602.12"
   fill-rule="evenodd"
   version="1.1"
   id="svg12"
   sodipodi:docname="878.svg"
   inkscape:version="1.1.1 (3bf5ae0d25, 2021-09-20)"
   xmlns:inkscape="http://www.inkscape.org/namespaces/inkscape"
   xmlns:sodipodi="http://sodipodi.sourceforge.net/DTD/sodipodi-0.dtd"
   xmlns="http://www.w3.org/2000/svg"
   xmlns:svg="http://www.w3.org/2000/svg">
  <defs
     id="defs16" />
  <sodipodi:namedview
     id="namedview14"
     pagecolor="#ffffff"
     bordercolor="#111111"
     borderopacity="1"
     inkscape:pageshadow="0"
     inkscape:pageopacity="0"
     inkscape:pagecheckerboard="1"
     showgrid="false"
     inkscape:zoom="1.1941141"
     inkscape:cx="97.561863"
     inkscape:cy="127.70973"
     inkscape:window-width="1920"
     inkscape:window-height="1057"
     inkscape:window-x="-8"
     inkscape:window-y="-8"
     inkscape:window-maximized="1"
     inkscape:current-layer="svg12" />
  <path
     d="M46.019,601.088 7.048,533.588 301.529,23.532 379.471,23.532 673.952,533.588 634.981,601.088"
     fill="#e31017"
     stroke="none"
     id="path2" />
  <circle
     cx="340.5"
     cy="46.032"
     r="45"
     fill="#e31017"
     stroke="none"
     id="circle4" />
  <circle
     cx="634.981"
     cy="556.088"
     r="45"
     fill="#e31017"
     stroke="none"
     id="circle6" />
  <circle
     cx="46.019"
     cy="556.088"
     r="45"
     fill="#e31017"
     stroke="none"
     id="circle8" />
  <path
     d="M72,541.088 340.5,76.032 609,541.088"
     fill="#fff"
     stroke="none"
     id="path10" />
  <path
     d="m 256.44191,421.75466 v 19.04669 h -40.61998 v 42.17481 h -20.21282 v -100.481 h 64.71987 v 19.0467 h -44.50705 v 20.2128"
     style="fill:#000000;fill-opacity:1;fill-rule:evenodd;stroke:none;stroke-width:0.194353"
     id="path16"
     sodipodi:nodetypes="cccccccccc" />
  <path
     id="path18"
     style="fill:#000000;fill-opacity:1;fill-rule:evenodd;stroke:none;stroke-width:0.194353"
     d="m 303.47461,407.76097 c -17.12257,-0.0601 -34.27318,10.65934 -34.20508,40.03711 -0.068,22.78955 13.36733,37.79708 35.17774,37.70508 19.92322,0.0919 34.07191,-16.20157 34.01171,-37.70508 0.0602,-29.37777 -19.37774,-40.09721 -34.98437,-40.03711 z" />
  <path
     id="path20"
     style="fill:#ffffff;fill-opacity:1;fill-rule:evenodd;stroke:none;stroke-width:0.194353"
     d="m 304.44727,425.44652 c -10.8061,-0.0243 -15.23596,8.8387 -15.16016,22.35156 -0.0758,11.64141 5.64069,20.50187 15.16016,20.40625 9.48835,0.0956 14.49065,-8.76484 14.57617,-20.40625 -0.0856,-17.08644 -5.94492,-22.37585 -14.57617,-22.35156 z" />
  <path
     d="m 375.38652,417.67323 c 4.36714,-5.68486 11.65541,-8.40056 19.0467,-8.35722 1.04174,-0.0433 1.89884,-0.0433 3.69272,0.19435 v 18.65798 c -6.36704,0.25655 -8.16287,0.19436 -8.16287,0.19436 -8.20756,0.3477 -14.92638,6.0652 -14.96524,17.68621 v 36.92725 h -19.24105 v -72.68838 h 19.24105"
     style="fill:#000000;fill-opacity:1;fill-rule:evenodd;stroke:none;stroke-width:0.194353"
     id="path22"
     sodipodi:nodetypes="cccccccccc" />
  <path
     id="path24"
     style="fill:#000000;fill-opacity:1;fill-rule:evenodd;stroke:none;stroke-width:0.194353"
     d="m 463.42969,382.10667 v 32.26172 c -7.74111,-5.23921 -12.60299,-6.23915 -20.01953,-6.21875 -21.16709,-0.0204 -31.59999,18.13039 -31.67969,39.06445 0.0797,22.51475 11.08503,37.52342 31.09765,37.51172 8.28725,0.0115 14.28896,-0.8472 20.60157,-6.2207 v 4.4707 h 19.6289 V 382.10667 Z" />
  <path
     id="path26"
     style="fill:#ffffff;fill-opacity:1;fill-rule:evenodd;stroke:none;stroke-width:0.194353"
     d="m 448.46289,425.44652 c -11.35611,-0.0243 -17.07241,8.69519 -17.10156,21.18554 0.0291,12.80754 5.7455,20.81008 16.71289,20.79492 10.04227,0.0152 15.47304,-5.41483 15.54883,-15.35351 v -11.27149 c -0.0758,-8.66022 -5.93613,-15.37975 -15.16016,-15.35546 z" />
</svg>
